<svg width="320" height="320" viewBox="0 0 320 320" fill="none" xmlns="http://www.w3.org/2000/svg">
<g filter="url(#filter0_ii_6670_1720)">
<circle cx="160" cy="160" r="160" fill="url(#paint0_linear_6670_1720)"/>
</g>
<circle cx="160" cy="160" r="146.154" stroke="url(#paint1_linear_6670_1720)" stroke-width="27.6923"/>
<path fill-rule="evenodd" clip-rule="evenodd" d="M157.532 255.981C142.187 255.981 128.67 252.744 116.979 246.268C105.379 239.793 96.2912 231.107 89.7151 220.21C83.2302 209.234 79.9878 197.074 79.9878 183.728V110.426C79.9878 93.7272 95.9865 81.6821 112.034 86.2986L156.837 99.1871C157.291 99.3178 157.773 99.3176 158.227 99.1865L202.733 86.3379C218.786 81.7035 234.802 93.75 234.802 110.458V183.728C234.802 193.757 232.929 203.154 229.185 211.919C225.531 220.605 220.279 228.265 213.429 234.898C206.579 241.531 198.405 246.703 188.906 250.414C179.498 254.125 169.04 255.981 157.532 255.981ZM154.135 131.583L141.657 163.255C141.065 164.758 139.787 165.884 138.221 166.282L117.493 171.544C112.998 172.685 112.32 178.788 116.455 180.888L139.015 192.341C140.11 192.897 140.963 193.835 141.413 194.978L154.135 227.27C155.805 231.511 161.807 231.511 163.478 227.27L176.199 194.978C176.649 193.835 177.503 192.897 178.598 192.341L201.158 180.888C205.293 178.788 204.615 172.685 200.12 171.544L179.391 166.282C177.826 165.884 176.547 164.758 175.955 163.255L163.478 131.583C161.807 127.342 155.805 127.342 154.135 131.583Z" fill="white"/>
<defs>
<filter id="filter0_ii_6670_1720" x="0" y="0" width="320" height="320" filterUnits="userSpaceOnUse" color-interpolation-filters="sRGB">
<feFlood flood-opacity="0" result="BackgroundImageFix"/>
<feBlend mode="normal" in="SourceGraphic" in2="BackgroundImageFix" result="shape"/>
<feColorMatrix in="SourceAlpha" type="matrix" values="0 0 0 0 0 0 0 0 0 0 0 0 0 0 0 0 0 0 127 0" result="hardAlpha"/>
<feOffset dy="41.5385"/>
<feComposite in2="hardAlpha" operator="arithmetic" k2="-1" k3="1"/>
<feColorMatrix type="matrix" values="0 0 0 0 0 0 0 0 0 0 0 0 0 0 0 0 0 0 0.25 0"/>
<feBlend mode="normal" in2="shape" result="effect1_innerShadow_6670_1720"/>
<feColorMatrix in="SourceAlpha" type="matrix" values="0 0 0 0 0 0 0 0 0 0 0 0 0 0 0 0 0 0 127 0" result="hardAlpha"/>
<feOffset dy="-13.8462"/>
<feComposite in2="hardAlpha" operator="arithmetic" k2="-1" k3="1"/>
<feColorMatrix type="matrix" values="0 0 0 0 1 0 0 0 0 1 0 0 0 0 1 0 0 0 0.25 0"/>
<feBlend mode="normal" in2="effect1_innerShadow_6670_1720" result="effect2_innerShadow_6670_1720"/>
</filter>
<linearGradient id="paint0_linear_6670_1720" x1="160" y1="0" x2="160" y2="320" gradientUnits="userSpaceOnUse">
<stop stop-color="#FACE16"/>
<stop offset="1" stop-color="#FB9816"/>
</linearGradient>
<linearGradient id="paint1_linear_6670_1720" x1="160" y1="0" x2="160" y2="320" gradientUnits="userSpaceOnUse">
<stop stop-color="#FCFAF3"/>
<stop offset="1" stop-color="#FCB453"/>
</linearGradient>
</defs>
</svg>
