<svg width="30" height="26" viewBox="0 0 30 26" fill="none" xmlns="http://www.w3.org/2000/svg">
<path d="M27.5318 0.13623L16.666 8.17609L18.6866 3.43796L27.5318 0.13623Z" fill="#E17726"/>
<path fill-rule="evenodd" clip-rule="evenodd" d="M27.6519 0.0712312C27.6842 0.130862 27.6678 0.205227 27.6132 0.245585L16.7474 8.28549C16.698 8.322 16.6303 8.32092 16.5821 8.28289C16.5338 8.24487 16.5171 8.17919 16.5412 8.12269L18.5618 3.38448C18.5764 3.35019 18.6045 3.32338 18.6395 3.31035L27.4847 0.0086189C27.5482 -0.0151145 27.6195 0.0115899 27.6519 0.0712312ZM18.7893 3.545L16.9882 7.76869L26.674 0.601802L18.7893 3.545Z" fill="#E17726"/>
<path d="M2.46875 0.13623L13.2377 8.25116L11.314 3.43795L2.46875 0.13623Z" fill="#E27625"/>
<path fill-rule="evenodd" clip-rule="evenodd" d="M2.34979 0.0707031C2.38229 0.0114074 2.45341 -0.0150375 2.51675 0.00862025L11.362 3.31034C11.398 3.32375 11.4266 3.35172 11.4408 3.38735L13.3646 8.20058C13.3873 8.25729 13.3694 8.32211 13.3209 8.35927C13.2724 8.39632 13.2051 8.39654 13.1562 8.35981L2.38723 0.244874C2.33321 0.20418 2.31727 0.129999 2.34979 0.0707031ZM3.29952 0.591422L12.9309 7.84906L11.2104 3.54434L3.29952 0.591422Z" fill="#E27625"/>
<path d="M23.6196 18.7778L20.7285 23.1945L26.9191 24.8989L28.6925 18.8744L23.6196 18.7778Z" fill="#E27625"/>
<path fill-rule="evenodd" clip-rule="evenodd" d="M23.5061 18.7037C23.5317 18.6645 23.5758 18.6412 23.6225 18.6421L28.6955 18.7387C28.7379 18.7394 28.7776 18.76 28.8026 18.7942C28.8278 18.8285 28.8355 18.8724 28.8235 18.9132L27.0501 24.9377C27.029 25.009 26.9549 25.0502 26.8833 25.0306L20.6928 23.326C20.6509 23.3145 20.6169 23.2836 20.6016 23.243C20.5861 23.2022 20.5912 23.1566 20.615 23.1202L23.5061 18.7037ZM23.6927 18.9157L20.9451 23.1131L26.8266 24.7325L28.5119 19.0075L23.6927 18.9157Z" fill="#E27625"/>
<path d="M1.31934 18.8744L3.08192 24.8989L9.26182 23.1945L6.38142 18.7778L1.31934 18.8744Z" fill="#E27625"/>
<path fill-rule="evenodd" clip-rule="evenodd" d="M6.37824 18.6421C6.42515 18.6412 6.46923 18.6645 6.49486 18.7038L9.37526 23.1205C9.39892 23.1569 9.40389 23.2023 9.38855 23.243C9.3731 23.2837 9.33929 23.3145 9.29738 23.326L3.11753 25.0305C3.04585 25.0502 2.97156 25.0089 2.95068 24.9375L1.18809 18.9129C1.17619 18.8723 1.18393 18.8283 1.20904 18.7941C1.23414 18.76 1.27375 18.7394 1.31616 18.7387L6.37824 18.6421ZM1.49941 19.0075L3.17436 24.7324L9.04535 23.1131L6.30801 18.9157L1.49941 19.0075Z" fill="#E27625"/>
<path d="M8.92858 11.3165L7.20898 13.9107L13.3351 14.1894L13.1309 7.59668L8.92858 11.3165Z" fill="#E27625"/>
<path fill-rule="evenodd" clip-rule="evenodd" d="M13.1843 7.47212C13.2327 7.49308 13.2648 7.54007 13.2664 7.59289L13.4706 14.1856C13.4718 14.2234 13.4571 14.2602 13.4301 14.2867C13.403 14.3133 13.3662 14.3275 13.3283 14.3258L7.20221 14.047C7.15323 14.0449 7.10923 14.0165 7.08702 13.9727C7.06482 13.9291 7.06784 13.8768 7.09493 13.8358L8.81453 11.2416C8.82101 11.2318 8.82889 11.2228 8.83775 11.2149L13.0401 7.49513C13.0796 7.46013 13.1358 7.45116 13.1843 7.47212ZM9.03155 11.407L7.45463 13.786L13.1939 14.0471L13.0032 7.89137L9.03155 11.407Z" fill="#E27625"/>
<path d="M21.0724 11.3178L16.8057 7.52295L16.666 14.1908L22.7921 13.9121L21.0724 11.3178Z" fill="#E27625"/>
<path fill-rule="evenodd" clip-rule="evenodd" d="M16.7518 7.39707C16.8004 7.37589 16.857 7.38486 16.8966 7.42019L21.1633 11.2149C21.1721 11.2228 21.1799 11.2317 21.1863 11.2415L22.9059 13.8358C22.933 13.8766 22.936 13.9289 22.9138 13.9726C22.8916 14.0163 22.8477 14.0447 22.7986 14.0469L16.6726 14.3257C16.635 14.3274 16.5984 14.3134 16.5714 14.2871C16.5443 14.2607 16.5295 14.2244 16.5303 14.1868L16.6701 7.51903C16.6712 7.46599 16.703 7.41835 16.7518 7.39707ZM16.936 7.81967L16.8056 14.0471L22.5463 13.7859L20.9692 11.4067L16.936 7.81967Z" fill="#E27625"/>
<path d="M9.26172 23.1947L12.9695 21.4046L9.77754 18.9175L9.26172 23.1947Z" fill="#E27625"/>
<path fill-rule="evenodd" clip-rule="evenodd" d="M9.72564 18.7916C9.77101 18.7729 9.82297 18.7799 9.86164 18.81L13.0536 21.297C13.0908 21.3259 13.1103 21.372 13.1053 21.4188C13.1004 21.4656 13.0715 21.5066 13.0292 21.527L9.3213 23.3172C9.27646 23.3388 9.22342 23.3343 9.18291 23.3053C9.1424 23.2764 9.12101 23.2276 9.12696 23.1783L9.64289 18.9011C9.64872 18.8524 9.68037 18.8106 9.72564 18.7916ZM9.88433 19.1728L9.42705 22.9637L12.7134 21.377L9.88433 19.1728Z" fill="#E27625"/>
<path d="M17.0322 21.4046L20.7293 23.1947L20.2242 18.9175L17.0322 21.4046Z" fill="#E27625"/>
<path fill-rule="evenodd" clip-rule="evenodd" d="M20.2761 18.7918C20.3215 18.8107 20.353 18.8526 20.3588 18.9014L20.864 23.1786C20.8698 23.228 20.8482 23.2766 20.8077 23.3054C20.7672 23.3343 20.7141 23.3388 20.6694 23.3171L16.9723 21.5269C16.93 21.5065 16.9012 21.4655 16.8963 21.4187C16.8913 21.372 16.9109 21.3259 16.948 21.297L20.14 18.81C20.1786 18.7798 20.2307 18.7729 20.2761 18.7918ZM17.288 21.3773L20.5644 22.9637L20.1167 19.1732L17.288 21.3773Z" fill="#E27625"/>
<path d="M20.7293 23.195L17.0322 21.4048L17.3331 23.806L17.3008 24.8245L20.7293 23.195Z" fill="#D5BFB2"/>
<path fill-rule="evenodd" clip-rule="evenodd" d="M16.9533 21.2941C16.9938 21.2649 17.0471 21.2604 17.0919 21.2822L20.789 23.0723C20.8362 23.0952 20.866 23.143 20.8658 23.1954C20.8657 23.2478 20.8354 23.2954 20.7881 23.3179L17.3597 24.9472C17.3168 24.9677 17.2664 24.9642 17.2267 24.9383C17.187 24.9122 17.1636 24.8674 17.1651 24.82L17.1971 23.8123L16.8976 21.4216C16.8913 21.3721 16.9127 21.3232 16.9533 21.2941ZM17.1988 21.6364L17.4686 23.789C17.4695 23.796 17.4698 23.8031 17.4696 23.8103L17.4444 24.6055L20.415 23.1938L17.1988 21.6364Z" fill="#D5BFB2"/>
<path d="M9.26172 23.195L12.701 24.8245L12.6793 23.806L12.9695 21.4048L9.26172 23.195Z" fill="#D5BFB2"/>
<path fill-rule="evenodd" clip-rule="evenodd" d="M13.0491 21.294C13.0896 21.3228 13.1111 21.3716 13.1051 21.421L12.8162 23.8126L12.8374 24.8214C12.8384 24.8685 12.815 24.9129 12.7753 24.9385C12.7357 24.9641 12.6857 24.9675 12.643 24.9473L9.20376 23.3178C9.15644 23.2955 9.12619 23.2477 9.12598 23.1953C9.12576 23.1429 9.15568 23.0951 9.20289 23.0723L12.9108 21.2821C12.9556 21.2605 13.0087 21.265 13.0491 21.294ZM9.57764 23.1937L12.5606 24.6069L12.5437 23.8087C12.5436 23.8023 12.5439 23.796 12.5447 23.7896L12.8049 21.6355L9.57764 23.1937Z" fill="#D5BFB2"/>
<path d="M12.7642 17.3315L9.69043 16.4311L11.8614 15.4341L12.7642 17.3315Z" fill="#233447"/>
<path fill-rule="evenodd" clip-rule="evenodd" d="M11.805 15.3093C11.8727 15.2782 11.9528 15.3073 11.9848 15.3746L12.8877 17.272C12.9107 17.3205 12.9031 17.3779 12.8683 17.4188C12.8334 17.4596 12.7779 17.4761 12.7264 17.4611L9.65259 16.5606C9.59804 16.5447 9.55926 16.4966 9.55505 16.44C9.55094 16.3832 9.58248 16.33 9.63401 16.3063L11.805 15.3093ZM10.0786 16.4017L12.5111 17.1144L11.7966 15.6128L10.0786 16.4017Z" fill="#233447"/>
<path d="M17.2363 17.3315L18.1392 15.4341L20.3209 16.4311L17.2363 17.3315Z" fill="#233447"/>
<path fill-rule="evenodd" clip-rule="evenodd" d="M18.0156 15.3751C18.0476 15.3079 18.1276 15.2788 18.1952 15.3097L20.3769 16.3067C20.4286 16.3303 20.4603 16.3836 20.4562 16.4403C20.4521 16.497 20.4131 16.5452 20.3585 16.5612L17.2739 17.4616C17.2224 17.4766 17.1669 17.46 17.1321 17.4191C17.0973 17.3783 17.0897 17.3208 17.1129 17.2724L18.0156 15.3751ZM18.2039 15.613L17.4892 17.1152L19.9312 16.4023L18.2039 15.613Z" fill="#233447"/>
<path d="M9.2612 23.1945L9.79863 18.7778L6.38086 18.8744L9.2612 23.1945Z" fill="#CC6228"/>
<path fill-rule="evenodd" clip-rule="evenodd" d="M9.89867 18.6865C9.92536 18.7158 9.93789 18.7554 9.93313 18.7947L9.3957 23.2112C9.38879 23.2678 9.34752 23.3141 9.29211 23.3272C9.23669 23.3404 9.17889 23.3177 9.14735 23.2703L6.26701 18.9503C6.23954 18.9091 6.2366 18.8562 6.25935 18.8123C6.28209 18.7682 6.32693 18.7401 6.37643 18.7387L9.7941 18.6421C9.83375 18.6411 9.87188 18.6573 9.89867 18.6865ZM6.62998 19.0039L9.16982 22.8134L9.64373 18.9188L6.62998 19.0039Z" fill="#CC6228"/>
<path d="M20.2031 18.7778L20.7298 23.1945L23.6209 18.8744L20.2031 18.7778Z" fill="#CC6228"/>
<path fill-rule="evenodd" clip-rule="evenodd" d="M20.102 18.6864C20.1287 18.6572 20.1668 18.6411 20.2064 18.6421L23.6241 18.7387C23.6736 18.7401 23.7185 18.7683 23.7412 18.8124C23.7639 18.8564 23.761 18.9093 23.7333 18.9504L20.8423 23.2705C20.8107 23.3178 20.7528 23.3405 20.6974 23.3272C20.6421 23.314 20.6008 23.2675 20.594 23.2109L20.0674 18.7943C20.0627 18.755 20.0753 18.7156 20.102 18.6864ZM20.3564 18.9188L20.8207 22.8133L23.37 19.0039L20.3564 18.9188Z" fill="#CC6228"/>
<path d="M22.7921 13.9116L16.666 14.1903L17.2356 17.3313L18.1384 15.4338L20.3202 16.4308L22.7921 13.9116Z" fill="#CC6228"/>
<path fill-rule="evenodd" clip-rule="evenodd" d="M22.9168 13.855C22.9396 13.9061 22.9288 13.966 22.8896 14.0059L20.4177 16.5251C20.3777 16.5661 20.3162 16.5774 20.264 16.5535L18.2042 15.6123L17.359 17.3888C17.3336 17.4422 17.2767 17.473 17.2181 17.4652C17.1594 17.4574 17.1127 17.4127 17.1021 17.3545L16.5325 14.2136C16.5254 14.1749 16.5355 14.1351 16.56 14.1045C16.5844 14.0737 16.621 14.0551 16.6603 14.0533L22.7863 13.7745C22.8422 13.7721 22.8939 13.8039 22.9168 13.855ZM16.8281 14.3181L17.2946 16.8904L18.0159 15.3743C18.0479 15.3071 18.1278 15.2781 18.1954 15.309L20.2903 16.2663L22.4528 14.0623L16.8281 14.3181Z" fill="#CC6228"/>
<path d="M9.69168 16.4308L11.8627 15.4338L12.7655 17.3313L13.3351 14.1903L7.20898 13.9116L9.69168 16.4308Z" fill="#CC6228"/>
<path fill-rule="evenodd" clip-rule="evenodd" d="M7.08405 13.8551C7.10684 13.804 7.15863 13.7721 7.21459 13.7745L13.3407 14.0533C13.3799 14.0551 13.4164 14.0737 13.441 14.1045C13.4654 14.1351 13.4754 14.1749 13.4684 14.2136L12.8989 17.3545C12.8883 17.4127 12.8414 17.4574 12.7829 17.4652C12.7243 17.473 12.6674 17.4422 12.642 17.3888L11.7968 15.6125L9.74787 16.5534C9.6958 16.5774 9.63434 16.5662 9.59415 16.5253L7.11144 14.0062C7.07213 13.9662 7.06126 13.9063 7.08405 13.8551ZM7.54911 14.0623L9.72097 16.2662L11.8052 15.3091C11.873 15.278 11.953 15.307 11.985 15.3743L12.7063 16.8904L13.1727 14.3181L7.54911 14.0623Z" fill="#CC6228"/>
<path d="M7.20898 13.9116L9.77762 18.9178L9.69163 16.4308L7.20898 13.9116Z" fill="#E27525"/>
<path fill-rule="evenodd" clip-rule="evenodd" d="M7.12864 13.8003C7.18311 13.7608 7.25819 13.7671 7.30537 13.8151L9.78804 16.3342C9.81202 16.3585 9.82595 16.3909 9.82714 16.4251L9.91313 18.9121C9.9154 18.9758 9.87305 19.0325 9.81137 19.0485C9.74969 19.0646 9.68509 19.0356 9.65592 18.9789L7.08729 13.9727C7.0566 13.9129 7.07417 13.8397 7.12864 13.8003ZM7.73521 14.6391L9.61995 18.3123L9.55686 16.4875L7.73521 14.6391Z" fill="#E27525"/>
<path d="M20.3193 16.4308L20.2227 18.9178L22.7913 13.9116L20.3193 16.4308Z" fill="#E27525"/>
<path fill-rule="evenodd" clip-rule="evenodd" d="M22.8724 13.8011C22.9269 13.8404 22.9445 13.9138 22.9139 13.9736L20.3452 18.9799C20.316 19.0367 20.2513 19.0657 20.1895 19.0495C20.1278 19.0333 20.0855 18.9762 20.088 18.9125L20.1847 16.4254C20.1861 16.3916 20.1999 16.3595 20.2236 16.3354L22.6955 13.8161C22.7426 13.7682 22.8178 13.7618 22.8724 13.8011ZM20.4547 16.4886L20.384 18.3077L22.263 14.6458L20.4547 16.4886Z" fill="#E27525"/>
<path d="M13.3343 14.1899L12.7646 17.3309L13.4848 21.04L13.6459 16.1517L13.3343 14.1899Z" fill="#E27525"/>
<path fill-rule="evenodd" clip-rule="evenodd" d="M13.3363 14.0542C13.4026 14.055 13.4588 14.1035 13.4692 14.169L13.7808 16.1308C13.7822 16.1393 13.7828 16.148 13.7824 16.1566L13.6213 21.0449C13.6189 21.1142 13.565 21.1707 13.496 21.1761C13.4269 21.1816 13.3647 21.1344 13.3515 21.0663L12.6314 17.3573C12.6282 17.3407 12.6281 17.3237 12.6311 17.3071L13.2008 14.1661C13.2126 14.1008 13.2699 14.0536 13.3363 14.0542ZM12.9035 17.3305L13.3889 19.8302L13.5099 16.1606L13.3259 15.0021L12.9035 17.3305Z" fill="#E27525"/>
<path d="M16.6663 14.1899L16.3652 16.141L16.5158 21.04L17.2358 17.3309L16.6663 14.1899Z" fill="#E27525"/>
<path fill-rule="evenodd" clip-rule="evenodd" d="M16.6648 14.0542C16.7313 14.0532 16.7887 14.1006 16.8006 14.166L17.3702 17.307C17.3732 17.3236 17.3731 17.3406 17.3699 17.3572L16.6498 21.0662C16.6366 21.1343 16.5743 21.1816 16.5052 21.176C16.4361 21.1704 16.3822 21.1137 16.38 21.0445L16.2295 16.1456C16.2293 16.1372 16.2299 16.1289 16.2311 16.1206L16.5321 14.1695C16.5422 14.1038 16.5983 14.0551 16.6648 14.0542ZM16.6774 15.0129L16.5021 16.1497L16.6148 19.8178L17.0977 17.3304L16.6774 15.0129Z" fill="#E27525"/>
<path d="M17.2357 17.3317L16.5156 21.0407L17.0316 21.4052L20.2236 18.9182L20.3203 16.4312L17.2357 17.3317Z" fill="#F5841F"/>
<path fill-rule="evenodd" clip-rule="evenodd" d="M20.4044 16.3232C20.4389 16.3502 20.4583 16.3921 20.4567 16.4359L20.3599 18.9228C20.3584 18.9629 20.3393 19.0003 20.3076 19.0249L17.1156 21.512C17.0683 21.5489 17.0024 21.5504 16.9533 21.5158L16.4375 21.1512C16.3937 21.1203 16.3721 21.0667 16.3824 21.0141L17.1024 17.3052C17.1121 17.2551 17.149 17.2146 17.1979 17.2004L20.2825 16.2999C20.3245 16.2877 20.3699 16.2963 20.4044 16.3232ZM17.3539 17.4385L16.6664 20.9797L17.028 21.2351L20.0904 18.8491L20.1773 16.6142L17.3539 17.4385Z" fill="#F5841F"/>
<path d="M9.69043 16.4312L9.77642 18.9182L12.9684 21.4052L13.4843 21.0407L12.7642 17.3317L9.69043 16.4312Z" fill="#F5841F"/>
<path fill-rule="evenodd" clip-rule="evenodd" d="M9.60727 16.323C9.64184 16.2962 9.6871 16.2877 9.72912 16.2999L12.8029 17.2004C12.8517 17.2148 12.8886 17.2552 12.8983 17.3052L13.6183 21.0142C13.6285 21.0668 13.6069 21.1203 13.5633 21.1512L13.0474 21.5158C12.9983 21.5504 12.9324 21.5489 12.8851 21.512L9.69315 19.025C9.66139 19.0002 9.64216 18.9626 9.64076 18.9223L9.55477 16.4352C9.55326 16.3916 9.57281 16.3499 9.60727 16.323ZM9.83337 16.6142L9.91072 18.8493L12.9727 21.2352L13.3343 20.9797L12.6468 17.4384L9.83337 16.6142Z" fill="#F5841F"/>
<path d="M17.3008 24.8238L17.333 23.8054L17.0537 23.5695H12.9481L12.6793 23.8054L12.701 24.8238L9.26172 23.1943L10.4653 24.1806L12.9051 25.8637H17.0858L19.5363 24.1806L20.7292 23.1943L17.3008 24.8238Z" fill="#C0AC9D"/>
<path fill-rule="evenodd" clip-rule="evenodd" d="M9.14706 23.1225C9.1839 23.0643 9.25822 23.0427 9.32044 23.0722L12.5606 24.6074L12.5437 23.8092C12.5429 23.769 12.5598 23.7304 12.5901 23.704L12.8587 23.4681C12.8836 23.4463 12.9154 23.4343 12.9485 23.4343H17.054C17.0862 23.4343 17.1173 23.4457 17.1419 23.4664L17.4212 23.7022C17.4531 23.7291 17.4708 23.769 17.4695 23.8106L17.4443 24.606L20.6712 23.0723C20.7333 23.0428 20.8075 23.0641 20.8445 23.1221C20.8814 23.18 20.8693 23.2564 20.8164 23.3002L19.6141 24.2941L17.1634 25.9767C17.1407 25.9923 17.1138 26.0006 17.0862 26.0006H12.9055C12.8779 26.0006 12.851 25.9923 12.8283 25.9765L10.3792 24.2871L9.17579 23.3005C9.12264 23.2569 9.11033 23.1806 9.14706 23.1225ZM10.2074 23.7937L10.5477 24.0725L12.948 25.7284H17.044L19.4546 24.0727L19.7981 23.7887L17.3598 24.9477C17.3169 24.968 17.2664 24.9646 17.2268 24.9386C17.187 24.9126 17.1637 24.8678 17.1652 24.8204L17.1953 23.8678L17.0044 23.7066H12.9998L12.8173 23.8668L12.8375 24.8218C12.8384 24.8689 12.815 24.9133 12.7753 24.9389C12.7358 24.9646 12.6857 24.9679 12.643 24.9477L10.2074 23.7937Z" fill="#C0AC9D"/>
<path d="M17.0314 21.4044L16.5155 21.04H13.4847L12.9689 21.4044L12.6787 23.8057L12.9474 23.5699H17.0529L17.3324 23.8057L17.0314 21.4044Z" fill="#100F19"/>
<path fill-rule="evenodd" clip-rule="evenodd" d="M13.4056 20.9288C13.4286 20.9126 13.456 20.9038 13.4841 20.9038H16.515C16.5431 20.9038 16.5705 20.9126 16.5935 20.9288L17.1094 21.2931C17.1407 21.3153 17.1612 21.3495 17.166 21.3874L17.4669 23.7888C17.4738 23.8444 17.4461 23.8986 17.3967 23.9253C17.3475 23.9521 17.2869 23.9458 17.2441 23.9097L17.0026 23.7059H12.9981L12.7679 23.908C12.7256 23.9452 12.6645 23.9524 12.6146 23.9261C12.5647 23.8998 12.5362 23.8454 12.543 23.7893L12.8331 21.3881C12.8378 21.3498 12.8583 21.3154 12.8898 21.2931L13.4056 20.9288ZM13.5274 21.176L13.0962 21.4807L12.856 23.4684L12.857 23.4675C12.8819 23.4457 12.9137 23.4337 12.9468 23.4337H17.0523C17.0845 23.4337 17.1156 23.445 17.1402 23.4658L17.1534 23.477L16.9033 21.4809L16.4717 21.176H13.5274Z" fill="#100F19"/>
<path d="M27.9946 8.70142L28.9082 4.26339L27.5325 0.13623L17.0322 7.90818L21.0732 11.3171L26.7801 12.9787L28.0376 11.5101L27.4895 11.1133L28.3601 10.3202L27.6938 9.80555L28.5642 9.14098L27.9946 8.70142Z" fill="#763E1A"/>
<path fill-rule="evenodd" clip-rule="evenodd" d="M27.5739 0.00632319C27.6155 0.0194592 27.6482 0.051716 27.662 0.09309L29.0377 4.22024C29.0453 4.24296 29.0467 4.26728 29.042 4.29074L28.1454 8.64543L28.6479 9.03303C28.6814 9.05896 28.7009 9.09882 28.7008 9.14117C28.7007 9.18351 28.6809 9.22337 28.6472 9.24908L27.9176 9.80607L28.4436 10.2124C28.4755 10.2369 28.4948 10.2744 28.4964 10.3145C28.498 10.3547 28.4818 10.3936 28.4521 10.4207L27.7053 11.1012L28.1178 11.3997C28.1487 11.422 28.1687 11.4562 28.1732 11.494C28.1776 11.5317 28.1662 11.5696 28.1415 11.5985L26.8839 13.0672C26.8491 13.1078 26.7938 13.1242 26.7425 13.1093L21.0355 11.4476C21.0173 11.4423 21.0004 11.4333 20.9858 11.4211L16.9448 8.01218C16.913 7.98528 16.8952 7.94531 16.8966 7.90372C16.8979 7.86213 16.9182 7.82346 16.9515 7.79862L27.4519 0.0267187C27.4869 0.000770779 27.5323 -0.00681281 27.5739 0.00632319ZM17.252 7.91507L21.1393 11.1943L26.7343 12.8233L27.8385 11.5336L27.4101 11.2236C27.3769 11.1995 27.3563 11.1618 27.354 11.121C27.3517 11.08 27.368 11.0403 27.3982 11.0126L28.1488 10.3287L27.6109 9.91323C27.5774 9.88741 27.5579 9.84744 27.558 9.8051C27.5581 9.76286 27.5779 9.723 27.6115 9.69729L28.3411 9.1403L27.9118 8.80909C27.8706 8.77733 27.8512 8.72483 27.8617 8.67384L28.7679 4.27165L27.463 0.357182L17.252 7.91507Z" fill="#763E1A"/>
<path d="M1.09375 4.26436L2.01803 8.70236L1.42692 9.14192L2.30821 9.80661L1.64188 10.3211L2.51242 11.1144L1.96429 11.511L3.22176 12.9797L8.92869 11.318L12.9697 7.90913L2.46943 0.137207L1.09375 4.26436Z" fill="#763E1A"/>
<path fill-rule="evenodd" clip-rule="evenodd" d="M2.42785 0.00632319C2.46943 -0.00681281 2.51479 0.000770779 2.54983 0.0267187L13.0501 7.79862C13.0836 7.82346 13.1039 7.86213 13.1052 7.90372C13.1065 7.94531 13.0887 7.98528 13.0569 8.01218L9.0159 11.4211C9.00142 11.4333 8.98446 11.4423 8.96621 11.4476L3.25923 13.1093C3.20789 13.1242 3.15255 13.1078 3.11777 13.0672L1.8603 11.5985C1.83556 11.5696 1.82404 11.5317 1.82852 11.4939C1.833 11.4562 1.85309 11.422 1.8839 11.3997L2.2964 11.1012L1.5496 10.4207C1.51986 10.3936 1.50363 10.3547 1.50526 10.3145C1.50691 10.2744 1.52624 10.2369 1.55808 10.2124L2.08325 9.80672L1.34437 9.24952C1.31014 9.2237 1.29006 9.1833 1.2902 9.14041C1.29036 9.09752 1.3107 9.05723 1.3451 9.03163L1.86645 8.64392L0.959893 4.29105C0.954988 4.2675 0.956404 4.24307 0.964019 4.22024L2.3397 0.09309C2.35349 0.051716 2.38626 0.0194592 2.42785 0.00632319ZM2.53866 0.357182L1.23392 4.27149L2.15072 8.67352C2.16153 8.72548 2.14122 8.77895 2.09868 8.8105L1.65344 9.1416L2.3896 9.69685C2.42349 9.72235 2.44353 9.76221 2.44376 9.80466C2.444 9.84712 2.42444 9.8873 2.39084 9.91323L1.85286 10.3287L2.60352 11.0126C2.6338 11.0403 2.65005 11.08 2.64775 11.121C2.64545 11.1618 2.62484 11.1995 2.59165 11.2236L2.1632 11.5336L3.26745 12.8233L8.86239 11.1943L12.7497 7.91507L2.53866 0.357182Z" fill="#763E1A"/>
<path d="M26.7787 12.9789L21.0717 11.3174L22.7913 13.9116L20.2227 18.9178L23.6189 18.8749H28.6917L26.7787 12.9789Z" fill="#F5841F"/>
<path fill-rule="evenodd" clip-rule="evenodd" d="M20.9634 11.2362C20.9973 11.1902 21.0563 11.1702 21.1111 11.186L26.8181 12.8476C26.8613 12.8602 26.8956 12.8934 26.9095 12.9363L28.8225 18.8323C28.8359 18.8737 28.8288 18.9191 28.8032 18.9543C28.7776 18.9897 28.7367 19.0105 28.693 19.0105H23.6211L20.2257 19.0533C20.178 19.0539 20.1335 19.0294 20.1083 18.9889C20.0831 18.9483 20.0812 18.8975 20.1029 18.8551L22.6352 13.9198L20.9596 11.3921C20.9281 11.3444 20.9296 11.2822 20.9634 11.2362ZM21.392 11.5514L22.9062 13.8358C22.9334 13.8769 22.9363 13.9294 22.9138 13.9732L20.4483 18.7782L23.6202 18.7382H28.5058L26.6728 13.0889L21.392 11.5514Z" fill="#F5841F"/>
<path d="M8.92856 11.3174L3.22165 12.9789L1.31934 18.8749H6.38142L9.77764 18.9178L7.20897 13.9116L8.92856 11.3174Z" fill="#F5841F"/>
<path fill-rule="evenodd" clip-rule="evenodd" d="M9.03757 11.2362C9.07149 11.2822 9.07301 11.3444 9.04146 11.3921L7.3659 13.9198L9.89811 18.8551C9.91993 18.8975 9.91788 18.9483 9.89271 18.9889C9.86765 19.0294 9.82303 19.0539 9.77528 19.0533L6.37997 19.0105H1.31875C1.27523 19.0105 1.23432 18.9897 1.2087 18.9544C1.18308 18.9192 1.17583 18.874 1.18919 18.8325L3.0915 12.9365C3.10537 12.8936 3.13965 12.8602 3.183 12.8476L8.8899 11.186C8.94478 11.1702 9.00376 11.1902 9.03757 11.2362ZM3.32844 13.0888L1.50571 18.7382H6.38255L9.55275 18.7782L7.08728 13.9732C7.0648 13.9294 7.06772 13.8769 7.09492 13.8358L8.60914 11.5514L3.32844 13.0888Z" fill="#F5841F"/>
<path d="M16.6648 14.1901L17.0302 7.90813L18.6853 3.43799H11.3125L12.9676 7.90813L13.333 14.1901L13.4727 16.1625L13.4835 21.04H16.5143L16.5251 16.1625L16.6648 14.1901Z" fill="#F5841F"/>
<path fill-rule="evenodd" clip-rule="evenodd" d="M11.2021 3.36011C11.2276 3.32355 11.2693 3.30176 11.3138 3.30176H18.6866C18.7312 3.30176 18.7729 3.32355 18.7984 3.36011C18.8238 3.39668 18.8298 3.44338 18.8143 3.48515L17.1663 7.93628L16.802 14.1995L16.6625 16.1673L16.6518 21.0403C16.6516 21.1153 16.5907 21.1761 16.5156 21.1761H13.4848C13.4097 21.1761 13.3489 21.1153 13.3487 21.0403L13.338 16.1673L13.1986 14.1995L13.1984 14.1978L12.8342 7.93628L11.1862 3.48515C11.1707 3.44338 11.1767 3.39668 11.2021 3.36011ZM11.5095 3.57402L13.0966 7.86077C13.1013 7.87341 13.104 7.8867 13.1049 7.90009L13.4701 14.1803L13.4702 14.182L13.6106 16.162L13.6207 20.9039H16.3798L16.3903 16.1528L16.5302 14.182L16.5303 14.1803L16.8956 7.90009C16.8964 7.8867 16.8992 7.87341 16.9039 7.86077L18.4911 3.57402H11.5095Z" fill="#F5841F"/>
</svg>
