<svg width="58" height="17" viewBox="0 0 58 17" fill="none" xmlns="http://www.w3.org/2000/svg">
<g id="logo">
<path id="Union" fill-rule="evenodd" clip-rule="evenodd" d="M50.8816 16.5548C49.4681 16.5548 48.2228 16.2566 47.1458 15.6601C46.0772 15.0636 45.24 14.2634 44.6341 13.2595C44.0367 12.2483 43.738 11.1281 43.738 9.89869V1.19775C43.738 0.634944 44.2773 0.228979 44.8181 0.384574L50.8582 2.12216C50.8735 2.12656 50.8898 2.12655 50.9051 2.12213L56.9192 0.385897C57.4602 0.2297 58 0.635714 58 1.19885V9.89869C58 10.8225 57.8275 11.6882 57.4825 12.4957C57.146 13.2959 56.6622 14.0015 56.0311 14.6125C55.4 15.2236 54.647 15.7001 53.7719 16.042C52.9052 16.3839 51.9418 16.5548 50.8816 16.5548ZM50.8425 4.39969L49.3651 8.1501C49.3452 8.20075 49.3021 8.23871 49.2493 8.2521L46.4369 8.96603C46.2854 9.00449 46.2625 9.2102 46.4019 9.28096L49.276 10.7401C49.313 10.7589 49.3417 10.7905 49.3569 10.829L50.8425 14.6003C50.8989 14.7432 51.1011 14.7432 51.1575 14.6003L52.6431 10.829C52.6583 10.7905 52.6871 10.7589 52.724 10.7401L55.5981 9.28096C55.7375 9.2102 55.7146 9.00449 55.5632 8.96603L52.7507 8.2521C52.6979 8.23871 52.6548 8.20075 52.6349 8.1501L51.1575 4.39969C51.1011 4.25675 50.8989 4.25675 50.8425 4.39969Z" fill="white"/>
<g id="Group 1261153077">
<path id="Vector" d="M35.5726 16.5141C34.5328 16.5141 33.5833 16.2466 32.7243 15.7116C31.8729 15.1766 31.1909 14.457 30.6785 13.5528C30.1737 12.6486 29.9213 11.6502 29.9213 10.5576C29.9213 9.73627 30.0682 8.96769 30.3621 8.25185C30.6559 7.52847 31.0591 6.89552 31.5715 6.35299C32.0914 5.80293 32.6942 5.37343 33.3799 5.06448C34.0656 4.75554 34.7965 4.60107 35.5726 4.60107C36.4693 4.60107 37.2869 4.79322 38.0253 5.17751C38.7713 5.5618 39.4005 6.0855 39.9129 6.74859C40.4328 7.41168 40.802 8.16143 41.0205 8.99783C41.2466 9.83423 41.2843 10.7045 41.1335 11.6088H33.2895C33.3874 11.9403 33.5381 12.2417 33.7416 12.513C33.9526 12.7767 34.2088 12.9877 34.5102 13.1459C34.8191 13.3042 35.1733 13.387 35.5726 13.3946C35.9644 13.4021 36.3261 13.3117 36.6577 13.1233C36.9892 12.9349 37.2718 12.6825 37.5054 12.366L40.6927 13.1007C40.2331 14.1029 39.5474 14.9242 38.6356 15.5647C37.7239 16.1976 36.7029 16.5141 35.5726 16.5141ZM33.1764 9.303H37.9801C37.8821 8.92624 37.7164 8.58716 37.4828 8.28576C37.2492 7.98435 36.9666 7.74699 36.6351 7.57368C36.3111 7.40038 35.9569 7.31372 35.5726 7.31372C35.1959 7.31372 34.8417 7.40038 34.5102 7.57368C34.1862 7.74699 33.9074 7.98435 33.6738 8.28576C33.4477 8.57963 33.2819 8.91871 33.1764 9.303Z" fill="white"/>
<path id="Vector_2" d="M27.6036 9.32568V16.5142H24.4841V10.1847C24.4841 9.78532 24.3861 9.4274 24.1902 9.11093C24.0018 8.78692 23.7456 8.53072 23.4216 8.34234C23.1051 8.15397 22.751 8.05978 22.3592 8.05978C21.9673 8.05978 21.6094 8.15397 21.2854 8.34234C20.9614 8.53072 20.7052 8.78692 20.5168 9.11093C20.3284 9.4274 20.2342 9.78532 20.2342 10.1847V16.5142H17.1147L17.1034 5.21149H20.2229L20.2342 6.04789C20.611 5.68621 21.0518 5.40364 21.5567 5.20019C22.069 4.99674 22.6078 4.89502 23.1729 4.89502C23.9943 4.89502 24.7365 5.0947 25.3996 5.49406C26.0702 5.89342 26.6052 6.42842 27.0046 7.09905C27.4039 7.76214 27.6036 8.50435 27.6036 9.32568Z" fill="white"/>
<path id="Vector_3" d="M7.22941 16.5548C6.23755 16.5548 5.30506 16.3592 4.43195 15.968C3.55883 15.5699 2.79048 15.0216 2.12691 14.3231C1.46335 13.6246 0.942967 12.8178 0.56578 11.9028C0.188593 10.9808 0 9.9959 0 8.94815C0 7.90041 0.188593 6.91903 0.56578 6.004C0.942967 5.08199 1.46335 4.27174 2.12691 3.57324C2.79048 2.87475 3.55883 2.32992 4.43195 1.93877C5.30506 1.54062 6.23755 1.34155 7.22941 1.34155C8.22826 1.34155 9.16424 1.54062 10.0374 1.93877C10.9105 2.32992 11.6788 2.87475 12.3424 3.57324C13.006 4.27174 13.5228 5.08199 13.893 6.004C14.2702 6.91903 14.4588 7.90041 14.4588 8.94815C14.4588 9.9959 14.2702 10.9808 13.893 11.9028C13.5228 12.8178 13.006 13.6246 12.3424 14.3231C11.6788 15.0216 10.9105 15.5699 10.0374 15.968C9.16424 16.3592 8.22826 16.5548 7.22941 16.5548ZM7.22941 13.663C7.82313 13.663 8.38193 13.5408 8.9058 13.2963C9.42967 13.0448 9.89068 12.7026 10.2888 12.2695C10.687 11.8364 10.9978 11.337 11.2213 10.7712C11.4518 10.2054 11.5671 9.59775 11.5671 8.94815C11.5671 8.29855 11.4518 7.69087 11.2213 7.12508C10.9978 6.55232 10.687 6.0529 10.2888 5.62681C9.89068 5.19375 9.42967 4.85498 8.9058 4.61051C8.38193 4.35905 7.82313 4.23332 7.22941 4.23332C6.63569 4.23332 6.0769 4.35905 5.55303 4.61051C5.02916 4.85498 4.56815 5.19375 4.17001 5.62681C3.77187 6.05988 3.45755 6.5593 3.22704 7.12508C3.00353 7.69087 2.89177 8.29855 2.89177 8.94815C2.89177 9.59775 3.00353 10.2089 3.22704 10.7817C3.45755 11.3475 3.77187 11.8469 4.17001 12.28C4.56815 12.7061 5.02916 13.0448 5.55303 13.2963C6.0769 13.5408 6.63569 13.663 7.22941 13.663Z" fill="white"/>
</g>
</g>
</svg>
