<svg width="108" height="80" viewBox="0 0 108 80" fill="none" xmlns="http://www.w3.org/2000/svg">
<g clip-path="url(#clip0_4371_816)">
<g clip-path="url(#clip1_4371_816)">
<path opacity="0.1" d="M52.6475 2.344L17.3525 63.4767C16.6068 64.7684 17.0455 66.423 18.3305 67.1649L21.1585 68.7976C22.172 69.3828 23.4755 69.2087 24.404 68.3638C25.5196 67.3467 27.1437 67.1702 28.4473 67.9228C29.7508 68.6754 30.4083 70.1692 30.087 71.6449C29.8195 72.8714 30.3205 74.0873 31.334 74.6724L35.307 76.9663C36.3205 77.5514 37.624 77.3773 38.5525 76.5324C39.6681 75.5154 41.2922 75.3388 42.5957 76.0914C43.8993 76.844 44.5558 78.3396 44.2355 79.8135C43.968 81.04 44.469 82.2559 45.4825 82.841L48.3105 84.4738C49.5955 85.2157 51.2478 84.7684 51.9935 83.4767L87.2885 22.344C88.0342 21.0523 87.5955 19.3978 86.3105 18.6559L83.4825 17.0231C82.469 16.438 81.1655 16.6121 80.237 17.4569C79.1214 18.474 77.4973 18.6505 76.1938 17.8979C74.8902 17.1453 74.2337 15.6498 74.554 14.1759C74.8215 12.9493 74.3205 11.7335 73.307 11.1483L69.334 8.85448C68.3222 8.27031 67.017 8.44344 66.0886 9.2883C64.9713 10.3044 63.3471 10.4809 62.0453 9.7293C60.7434 8.97767 60.0852 7.48117 60.4056 6.00722C60.673 4.7807 60.172 3.56483 59.1585 2.97969L56.3305 1.34694C55.0455 0.605043 53.3932 1.05235 52.6475 2.344Z" fill="white"/>
<path d="M52.4521 16.529L29.1543 56.882C28.1704 58.5863 28.7593 60.7761 30.4667 61.7619L46.2558 70.8777C47.9632 71.8635 50.1541 71.2786 51.1381 69.5743L74.4368 29.2196C75.4208 27.5154 74.8336 25.3265 73.1244 24.3398L57.3354 15.224C55.628 14.2382 53.4371 14.8231 52.4531 16.5273L52.4521 16.529Z" stroke="#606675" stroke-width="1.5" stroke-miterlimit="10"/>
<path fill-rule="evenodd" clip-rule="evenodd" d="M61.5384 25.9335L57.43 33.0493C57.2904 33.2912 57.3749 33.5898 57.6012 33.7204C57.8275 33.851 58.1283 33.7749 58.2679 33.5331L62.3763 26.4172C62.5159 26.1754 62.4314 25.8768 62.2051 25.7461C61.9789 25.6155 61.678 25.6916 61.5384 25.9335Z" fill="#606675" stroke="#606675" stroke-width="0.5"/>
<path d="M59.5573 41.2134L59.5979 41.3723C61.2592 47.8756 54.2402 53.2669 48.351 49.9462L48.351 49.9461C44.613 47.839 43.3169 43.0822 45.4497 39.388C48.8443 33.5084 57.7177 34.6378 59.5497 41.186L59.5573 41.2134Z" stroke="#606675" stroke-width="1.5"/>
<path fill-rule="evenodd" clip-rule="evenodd" d="M53.2654 41.6111C52.7768 41.835 52.3604 42.2204 51.9754 42.6439C51.8453 42.787 51.7292 42.9223 51.6143 43.0562C51.5438 43.1384 51.4736 43.2201 51.4011 43.3027C51.2239 43.5044 51.0344 43.7084 50.8391 43.8544C50.596 44.0366 50.3086 44.0926 50.0341 44.02C49.7733 43.9511 49.5641 43.7776 49.42 43.5727C48.9967 42.9762 49.2281 42.258 49.5399 41.7694C49.8643 41.2611 50.3915 40.7984 50.9274 40.6117C51.1867 40.5207 51.3244 40.2343 51.2379 39.9803L51.2375 39.9791C51.1522 39.7262 50.8806 39.5929 50.6265 39.6818C50.1064 39.865 49.5931 40.2321 49.163 40.7037L48.926 40.9635L48.1038 40.4996C47.8971 40.3836 47.6192 40.4323 47.4316 40.7062C47.3042 40.948 47.3932 41.2373 47.6161 41.3626L47.6166 41.3629L48.4199 41.8159L48.3263 42.1497C48.0209 43.239 48.4302 44.1447 49.0859 44.6373C49.7443 45.1319 50.6483 45.2148 51.4084 44.6443C51.7074 44.42 52.0073 44.0771 52.338 43.6991C52.3841 43.6463 52.4308 43.593 52.4781 43.5391C52.663 43.3289 52.8572 43.1142 53.0529 42.9329C53.245 42.7549 53.4658 42.583 53.7094 42.4846C54.191 42.2902 54.5743 42.5843 54.7653 42.8299C54.961 43.0816 55.0851 43.4204 55.103 43.7138C55.1394 44.3023 54.8195 44.8589 54.4455 45.2609C54.0667 45.6679 53.5519 46.005 53.0496 46.1139C52.7834 46.173 52.6114 46.4362 52.6654 46.7058C52.7211 46.9704 52.975 47.1336 53.2346 47.0775C53.9499 46.9194 54.6008 46.4891 55.1305 45.9207L55.3679 45.666L56.0419 46.0469L56.0423 46.0472C56.2689 46.1742 56.5664 46.0968 56.7047 45.8573L56.7082 45.8513C56.8441 45.6073 56.7559 45.3111 56.5296 45.1839L56.529 45.1836L55.8845 44.8199L55.9771 44.4868C56.232 43.5703 55.9616 42.6674 55.4286 42.083C54.9012 41.5048 54.1418 41.2559 53.3625 41.5718L53.2654 41.6111Z" fill="#606675" stroke="#606675" stroke-width="0.5"/>
</g>
</g>
<g clip-path="url(#clip2_4371_816)" filter="url(#filter0_d_4371_816)">
<path opacity="0.1" d="M92.295 38L21.705 38C20.2135 38 19 39.2073 19 40.6911V43.9566C19 45.1269 19.8025 46.1686 20.9984 46.5503C22.437 47.0079 23.402 48.3262 23.402 49.8314C23.402 51.3366 22.437 52.6529 20.9984 53.1125C19.8025 53.4941 19 54.5359 19 55.7062V60.2938C19 61.4641 19.8025 62.5059 20.9984 62.8875C22.437 63.3451 23.402 64.6634 23.402 66.1686C23.402 67.6738 22.4351 68.9902 20.9984 69.4497C19.8025 69.8314 19 70.8731 19 72.0434V75.3089C19 76.7927 20.2135 78 21.705 78H92.295C93.7865 78 95 76.7927 95 75.3089V72.0434C95 70.8731 94.1975 69.8314 93.0016 69.4497C91.563 68.9921 90.598 67.6738 90.598 66.1686C90.598 64.6634 91.5649 63.3471 93.0016 62.8875C94.1975 62.5059 95 61.4641 95 60.2938V55.7062C95 54.5378 94.1975 53.4941 93.0016 53.1125C91.563 52.6529 90.598 51.3346 90.598 49.8314C90.598 48.3281 91.5649 47.0098 93.0016 46.5503C94.1975 46.1686 95 45.1269 95 43.9566V40.6911C95 39.2073 93.7865 38 92.295 38Z" fill="white"/>
<path d="M79.913 44.9229H33.3173C31.3494 44.9229 29.7474 46.5278 29.7474 48.4994V66.731C29.7474 68.7025 31.3494 70.3075 33.3173 70.3075H79.9149C81.8828 70.3075 83.4848 68.7045 83.4848 66.731V48.4994C83.4848 46.5278 81.8828 44.9229 79.9149 44.9229H79.913Z" stroke="#606675" stroke-width="1.5" stroke-miterlimit="10"/>
<path fill-rule="evenodd" clip-rule="evenodd" d="M45.1786 57.4951H36.9619C36.6826 57.4951 36.4663 57.7176 36.4663 57.9789C36.4663 58.2401 36.6826 58.4626 36.9619 58.4626H45.1786C45.4579 58.4626 45.6742 58.2401 45.6742 57.9789C45.6742 57.7176 45.4579 57.4951 45.1786 57.4951Z" fill="#606675" stroke="#606675" stroke-width="0.5"/>
<path fill-rule="evenodd" clip-rule="evenodd" d="M76.3115 57.4941H68.0948C67.8156 57.4941 67.5992 57.7166 67.5992 57.9779C67.5992 58.2392 67.8156 58.4617 68.0948 58.4617H76.3115C76.5908 58.4617 76.8071 58.2392 76.8071 57.9779C76.8071 57.7166 76.5908 57.4941 76.3115 57.4941Z" fill="#606675" stroke="#606675" stroke-width="0.5"/>
<path d="M62.088 63.4184L61.9707 63.533C57.1693 68.2233 48.9908 64.8404 48.922 58.0798L48.922 58.0797C48.8779 53.789 52.3494 50.2881 56.615 50.2881C63.4042 50.2881 66.8628 58.5374 62.1079 63.398L62.088 63.4184Z" stroke="#606675" stroke-width="1.5"/>
<path fill-rule="evenodd" clip-rule="evenodd" d="M58.5974 58.1688C58.1592 57.8576 57.6172 57.6897 57.058 57.568C56.8691 57.5269 56.6938 57.494 56.5205 57.4614C56.4139 57.4414 56.3081 57.4216 56.2003 57.4C55.9371 57.3474 55.6656 57.2853 55.4415 57.1892C55.1622 57.0697 54.97 56.8489 54.8956 56.5749C54.8249 56.3145 54.8706 56.0466 54.976 55.8193C55.2809 55.1545 56.0186 54.9958 56.5976 55.0216C57.2 55.0484 57.8643 55.2736 58.294 55.6443C58.5024 55.8233 58.8193 55.7994 58.996 55.5975L58.9968 55.5965C59.1732 55.3962 59.1528 55.0943 58.9488 54.9188C58.5302 54.5599 57.9555 54.299 57.3321 54.1623L56.9885 54.0869L56.9792 53.1429C56.9763 52.9059 56.7952 52.6896 56.4642 52.6641C56.1911 52.6747 55.985 52.8964 55.988 53.1521L55.988 53.1526L55.9974 54.0749L55.6615 54.1607C54.5654 54.4408 53.9857 55.2482 53.8869 56.0623C53.7878 56.8798 54.168 57.7041 55.0421 58.0772C55.3859 58.2239 55.8327 58.3122 56.3255 58.4096C56.3942 58.4231 56.4638 58.4369 56.5341 58.451C56.8086 58.506 57.0916 58.5668 57.3465 58.6456C57.5967 58.723 57.8559 58.8282 58.063 58.99C58.4721 59.3099 58.4091 59.7889 58.2918 60.0771C58.1717 60.3724 57.9404 60.6494 57.6952 60.8115C57.2038 61.1373 56.5618 61.1386 56.0267 61.0156C55.4848 60.8912 54.9354 60.6138 54.59 60.2332C54.4057 60.0323 54.0918 60.0149 53.8853 60.1965C53.6841 60.377 53.6696 60.6785 53.848 60.8753C54.3426 61.4157 55.0407 61.7642 55.7978 61.9388L56.1371 62.017L56.1441 62.7912L56.1441 62.7917C56.1474 63.0515 56.3632 63.2704 56.6398 63.2704H56.6467C56.9259 63.2661 57.1384 63.0416 57.1354 62.7821L57.1354 62.7814L57.128 62.0414L57.4629 61.955C58.384 61.7175 59.0307 61.0319 59.2704 60.278C59.5074 59.5323 59.3432 58.7502 58.6801 58.2332L58.5974 58.1688Z" fill="#606675" stroke="#606675" stroke-width="0.5"/>
</g>
<path d="M100.52 18.2427L101.85 16.2481C102.246 15.6543 103.118 15.6543 103.514 16.2481L104.844 18.2427C104.917 18.3525 105.011 18.4468 105.121 18.52L107.116 19.8498C107.709 20.2456 107.709 21.118 107.116 21.5139L105.121 22.8436C105.011 22.9168 104.917 23.0111 104.844 23.121L103.514 25.1156C103.118 25.7093 102.246 25.7093 101.85 25.1156L100.52 23.121C100.447 23.0111 100.353 22.9168 100.243 22.8436L98.2481 21.5139C97.6543 21.118 97.6543 20.2456 98.2481 19.8498L100.243 18.52C100.353 18.4468 100.447 18.3525 100.52 18.2427Z" fill="#42455E"/>
<path d="M3.52003 37.2427L4.84977 35.2481C5.24559 34.6543 6.11805 34.6543 6.51387 35.2481L7.84361 37.2427C7.91684 37.3525 8.0111 37.4468 8.12096 37.52L10.1156 38.8498C10.7093 39.2456 10.7093 40.118 10.1156 40.5139L8.12096 41.8436C8.0111 41.9168 7.91684 42.0111 7.84361 42.121L6.51387 44.1156C6.11805 44.7093 5.24559 44.7093 4.84977 44.1156L3.52003 42.121C3.4468 42.0111 3.35253 41.9168 3.24268 41.8436L1.24808 40.5139C0.654342 40.118 0.654343 39.2456 1.24808 38.8498L3.24268 37.52C3.35253 37.4468 3.4468 37.3525 3.52003 37.2427Z" fill="#42455E"/>
<defs>
<filter id="filter0_d_4371_816" x="15" y="32" width="84" height="48" filterUnits="userSpaceOnUse" color-interpolation-filters="sRGB">
<feFlood flood-opacity="0" result="BackgroundImageFix"/>
<feColorMatrix in="SourceAlpha" type="matrix" values="0 0 0 0 0 0 0 0 0 0 0 0 0 0 0 0 0 0 127 0" result="hardAlpha"/>
<feOffset dy="-2"/>
<feGaussianBlur stdDeviation="2"/>
<feComposite in2="hardAlpha" operator="out"/>
<feColorMatrix type="matrix" values="0 0 0 0 0.143144 0 0 0 0 0.162753 0 0 0 0 0.279266 0 0 0 0.64 0"/>
<feBlend mode="normal" in2="BackgroundImageFix" result="effect1_dropShadow_4371_816"/>
<feBlend mode="normal" in="SourceGraphic" in2="effect1_dropShadow_4371_816" result="shape"/>
</filter>
<clipPath id="clip0_4371_816">
<rect width="65" height="38" fill="white" transform="translate(24)"/>
</clipPath>
<clipPath id="clip1_4371_816">
<rect width="76" height="40" fill="white" transform="translate(16 65.8193) rotate(-60)"/>
</clipPath>
<clipPath id="clip2_4371_816">
<rect width="76" height="40" fill="white" transform="translate(19 38)"/>
</clipPath>
</defs>
</svg>
